<svg width="20" height="20" viewBox="0 0 20 20" fill="none" xmlns="http://www.w3.org/2000/svg">
<path fill-rule="evenodd" clip-rule="evenodd" d="M6.04163 8.33333C6.04163 7.28352 6.45866 6.2767 7.201 5.53437C7.94333 4.79204 8.95014 4.375 9.99996 4.375C11.0498 4.375 12.0566 4.79204 12.7989 5.53437C13.5413 6.2767 13.9583 7.28352 13.9583 8.33333C13.9583 9.38315 13.5413 10.39 12.7989 11.1323C12.0566 11.8746 11.0498 12.2917 9.99996 12.2917C8.95014 12.2917 7.94333 11.8746 7.201 11.1323C6.45866 10.39 6.04163 9.38315 6.04163 8.33333ZM9.99996 5.625C9.28166 5.625 8.59279 5.91034 8.08488 6.41825C7.57697 6.92616 7.29163 7.61504 7.29163 8.33333C7.29163 9.05163 7.57697 9.7405 8.08488 10.2484C8.59279 10.7563 9.28166 11.0417 9.99996 11.0417C10.7183 11.0417 11.4071 10.7563 11.915 10.2484C12.423 9.7405 12.7083 9.05163 12.7083 8.33333C12.7083 7.61504 12.423 6.92616 11.915 6.41825C11.4071 5.91034 10.7183 5.625 9.99996 5.625Z" fill="#4E4E4E"/>
<path fill-rule="evenodd" clip-rule="evenodd" d="M2.93665 7.38079C3.07946 5.65327 3.86649 4.04257 5.14156 2.86829C6.41664 1.69402 8.08657 1.04201 9.81998 1.04163H10.18C11.9134 1.04201 13.5833 1.69402 14.8584 2.86829C16.1335 4.04257 16.9205 5.65327 17.0633 7.38079C17.2222 9.30523 16.6276 11.2162 15.405 12.7108L11.4108 17.595C11.2399 17.804 11.0246 17.9724 10.7806 18.0881C10.5366 18.2037 10.27 18.2637 9.99998 18.2637C9.72996 18.2637 9.46331 18.2037 9.21932 18.0881C8.97533 17.9724 8.76008 17.804 8.58915 17.595L4.59498 12.7108C3.37234 11.2162 2.77779 9.30523 2.93665 7.38079ZM9.81998 2.29163C8.4005 2.29223 7.03308 2.82633 5.98899 3.788C4.94489 4.74967 4.30039 6.06864 4.18331 7.48329C4.05105 9.08487 4.54582 10.6752 5.56331 11.9191L9.55748 16.8041C9.61117 16.8698 9.67881 16.9228 9.75548 16.9592C9.83215 16.9955 9.91595 17.0144 10.0008 17.0144C10.0857 17.0144 10.1695 16.9955 10.2462 16.9592C10.3228 16.9228 10.3905 16.8698 10.4441 16.8041L14.4383 11.9191C15.4552 10.675 15.9494 9.08465 15.8166 7.48329C15.6996 6.0685 15.0549 4.74941 14.0107 3.78772C12.9664 2.82603 11.5988 2.29202 10.1791 2.29163H9.81998Z" fill="#4E4E4E"/>
</svg>
