<svg width="20" height="20" viewBox="0 0 20 20" fill="none" xmlns="http://www.w3.org/2000/svg">
<g clip-path="url(#clip0_2015_148)">
<path d="M16.219 1.94302C16.872 2.45502 17.322 3.28202 17.506 4.14802L17.571 4.17402L19.616 5.12002C19.7302 5.17261 19.8271 5.25674 19.8951 5.36251C19.9631 5.46827 19.9995 5.59127 20 5.71702V18.084C19.9993 18.1868 19.9747 18.2879 19.9284 18.3796C19.882 18.4712 19.815 18.5509 19.7326 18.6123C19.6503 18.6738 19.5548 18.7153 19.4537 18.7336C19.3526 18.7519 19.2487 18.7466 19.15 18.718L13.481 17.118L6.741 18.976C6.61942 19.0096 6.49082 19.0083 6.37 18.972L0.474 17.217C0.337721 17.177 0.21799 17.0941 0.132595 16.9806C0.047201 16.8671 0.00069966 16.7291 0 16.587L0 3.99802C0 3.55802 0.428 3.24202 0.855 3.36602L6.557 5.02702L9.455 4.14002C9.495 4.12802 9.53567 4.11969 9.577 4.11502C9.689 3.45902 10.002 2.82902 10.527 2.21502C11.15 1.48502 12.243 1.05702 13.308 1.00602C14.413 0.953024 15.257 1.18902 16.218 1.94202M1.333 4.88102V16.096L6.203 17.545V6.29802L1.333 4.88102ZM9.542 5.49502L7.536 6.10802V17.387L12.601 15.993V12.698C12.601 12.334 12.9 12.039 13.268 12.039C13.636 12.039 13.934 12.334 13.934 12.699V15.876L18.667 17.211V6.13602L17.547 5.61602C17.5283 5.72602 17.504 5.83369 17.474 5.93902C17.2574 6.7061 16.8925 7.42329 16.4 8.05002L13.923 11.143C13.8578 11.2243 13.7745 11.2893 13.6797 11.3328C13.585 11.3763 13.4814 11.3971 13.3772 11.3935C13.273 11.3899 13.1711 11.362 13.0796 11.3121C12.9881 11.2622 12.9095 11.1916 12.85 11.106L10.535 7.75302C10.1523 7.22036 9.88533 6.74169 9.734 6.31702C9.63885 6.05125 9.57443 5.77545 9.542 5.49502ZM13.372 2.32402C12.646 2.35902 11.9 2.65102 11.545 3.06602C11.118 3.56602 10.908 4.03402 10.866 4.50802C10.816 5.07902 10.85 5.48202 10.992 5.88102C11.097 6.17602 11.306 6.55002 11.629 7.00102L13.44 9.62302L15.35 7.23802C15.7356 6.74574 16.0213 6.18287 16.191 5.58102C16.431 4.74102 16.069 3.50702 15.391 2.97702C14.696 2.43202 14.171 2.28502 13.373 2.32402M13.511 3.02102C14.615 3.02102 15.511 3.90602 15.511 4.99802C15.5076 5.52529 15.295 6.02963 14.92 6.40031C14.545 6.77098 14.0383 6.97768 13.511 6.97502C12.407 6.97502 11.511 6.09002 11.511 4.99802C11.511 3.90602 12.407 3.02102 13.511 3.02102ZM13.511 4.33902C13.4239 4.3385 13.3376 4.35512 13.257 4.38796C13.1763 4.42079 13.103 4.46919 13.041 4.53038C12.9791 4.59157 12.9298 4.66437 12.896 4.74461C12.8622 4.82485 12.8445 4.91096 12.844 4.99802C12.844 5.36202 13.143 5.65702 13.511 5.65702C13.5981 5.65742 13.6844 5.64066 13.7649 5.60771C13.8455 5.57475 13.9188 5.52625 13.9807 5.46496C14.0425 5.40367 14.0917 5.3308 14.1254 5.25052C14.1591 5.17023 14.1766 5.08409 14.177 4.99702C14.1757 4.82153 14.1048 4.65372 13.98 4.53038C13.8551 4.40704 13.6865 4.33823 13.511 4.33902Z" fill="#4E4E4E"/>
</g>
<defs>
<clipPath id="clip0_2015_148">
<rect width="20" height="20" fill="white"/>
</clipPath>
</defs>
</svg>
