<svg width="20" height="20" viewBox="0 0 20 20" fill="none" xmlns="http://www.w3.org/2000/svg">
<path d="M4.64252 6.57251C4.40377 5.00001 5.51252 3.58751 7.20627 3.07001C7.50684 2.97873 7.83088 3.00518 8.11268 3.14399C8.39448 3.2828 8.61294 3.52358 8.72377 3.81751L9.26752 5.26751C9.35505 5.50078 9.37088 5.75488 9.31297 5.9972C9.25506 6.23953 9.12606 6.45902 8.94252 6.62751L7.32502 8.10876C7.24519 8.18185 7.18571 8.27442 7.1524 8.37741C7.1191 8.48039 7.11311 8.59026 7.13502 8.69626L7.15002 8.76126L7.18877 8.92376C7.39043 9.71315 7.6969 10.472 8.10002 11.18C8.54017 11.9318 9.08571 12.6166 9.72002 13.2138L9.77002 13.2588C9.85077 13.3304 9.94871 13.38 10.0543 13.4025C10.1599 13.4251 10.2695 13.4199 10.3725 13.3875L12.4638 12.7288C12.7014 12.6541 12.956 12.6522 13.1947 12.7233C13.4335 12.7943 13.6456 12.9351 13.8038 13.1275L14.7938 14.3288C15.2063 14.8288 15.1563 15.5638 14.6825 16.005C13.3863 17.2138 11.6038 17.4613 10.3638 16.465C8.84316 15.2396 7.56171 13.7442 6.58377 12.0538C5.59626 10.3656 4.93841 8.50578 4.64252 6.57251ZM8.44502 8.77876L9.78502 7.54876C10.1523 7.21193 10.4106 6.77301 10.5266 6.28835C10.6426 5.80369 10.6112 5.29541 10.4363 4.82876L9.89377 3.37876C9.67121 2.78722 9.23182 2.30259 8.66487 2.02329C8.09791 1.74399 7.4459 1.69097 6.84127 1.87501C4.73752 2.51876 3.04877 4.40501 3.40627 6.76126C3.65627 8.40626 4.23252 10.4988 5.50377 12.6838C6.55891 14.5064 7.9412 16.1188 9.58127 17.44C11.4413 18.9338 13.9238 18.4238 15.5363 16.9213C15.9977 16.4917 16.2777 15.9022 16.3193 15.2731C16.3609 14.6441 16.1608 14.0229 15.76 13.5363L14.77 12.3338C14.4533 11.9494 14.029 11.6683 13.5515 11.5267C13.074 11.385 12.5651 11.3892 12.09 11.5388L10.3538 12.085C9.90545 11.6228 9.51277 11.1098 9.18377 10.5563C8.86629 9.99653 8.61861 9.4 8.44627 8.78001" fill="#4E4E4E"/>
</svg>
