<svg width="20" height="20" viewBox="0 0 20 20" fill="none" xmlns="http://www.w3.org/2000/svg">
<path d="M8.33341 18.3334V12.8584M10.0001 9.16671H10.0084M10.0001 5.83337H10.0084M11.6667 12.8584V18.3334M12.5001 13.3334C11.7788 12.7924 10.9016 12.5 10.0001 12.5C9.09854 12.5 8.22132 12.7924 7.50008 13.3334M13.3334 9.16671H13.3417M13.3334 5.83337H13.3417M6.66675 9.16671H6.67508M6.66675 5.83337H6.67508" stroke="#4E4E4E" stroke-width="2.08333" stroke-linecap="round" stroke-linejoin="round"/>
<path d="M15 1.66669H5.00004C4.07957 1.66669 3.33337 2.41288 3.33337 3.33335V16.6667C3.33337 17.5872 4.07957 18.3334 5.00004 18.3334H15C15.9205 18.3334 16.6667 17.5872 16.6667 16.6667V3.33335C16.6667 2.41288 15.9205 1.66669 15 1.66669Z" stroke="#4E4E4E" stroke-width="2.08333" stroke-linecap="round" stroke-linejoin="round"/>
</svg>
