<svg width="20" height="20" viewBox="0 0 20 20" fill="none" xmlns="http://www.w3.org/2000/svg">
<path d="M9.18671 6.30835L9.00087 7.06669H8.10837L8.02337 7.07252C7.87375 7.09306 7.73662 7.16709 7.63735 7.28091C7.53808 7.39473 7.48338 7.54066 7.48337 7.69169L7.48921 7.77669C7.50975 7.92631 7.58377 8.06344 7.6976 8.16271C7.81142 8.26198 7.95734 8.31668 8.10837 8.31669H8.69421L8.37087 9.63835L7.70754 9.63919L7.62254 9.64502C7.47291 9.66556 7.33578 9.73959 7.23651 9.85341C7.13724 9.96723 7.08255 10.1132 7.08254 10.2642L7.08837 10.3492C7.10891 10.4988 7.18294 10.6359 7.29676 10.7352C7.41059 10.8345 7.55651 10.8892 7.70754 10.8892H8.06504L7.96254 11.3109L7.94754 11.3942C7.93173 11.5446 7.97098 11.6956 8.05802 11.8193C8.14506 11.9429 8.27397 12.0308 8.42087 12.0667L8.50421 12.0817C8.6546 12.0975 8.80561 12.0582 8.92927 11.9712C9.05293 11.8842 9.14084 11.7553 9.17671 11.6084L9.35171 10.8884H10.6342L10.5359 11.32L10.5225 11.4034C10.5089 11.554 10.5503 11.7046 10.6392 11.827C10.7281 11.9495 10.8584 12.0355 11.0059 12.0692L11.0892 12.0825C11.2399 12.0962 11.3904 12.0548 11.5129 11.9659C11.6353 11.877 11.7214 11.7467 11.755 11.5992L11.9167 10.8884L12.7 10.8892L12.785 10.8834C12.9348 10.863 13.0721 10.7891 13.1716 10.6752C13.271 10.5614 13.3258 10.4153 13.3259 10.2642L13.32 10.1792C13.2995 10.0296 13.2255 9.89243 13.1116 9.79316C12.9978 9.69389 12.8519 9.63919 12.7009 9.63919H12.2034L12.5059 8.31669H13.1059L13.1909 8.31085C13.3405 8.29031 13.4776 8.21629 13.5769 8.10246C13.6762 7.98864 13.7309 7.84272 13.7309 7.69169L13.725 7.60752C13.7047 7.45774 13.6307 7.32041 13.5169 7.22097C13.4031 7.12153 13.257 7.06672 13.1059 7.06669H12.7925L12.9009 6.59669L12.9142 6.51335C12.9277 6.3628 12.8861 6.21247 12.7973 6.0902C12.7084 5.96793 12.5782 5.88201 12.4309 5.84835L12.3475 5.83502C12.197 5.82155 12.0467 5.8631 11.9244 5.95196C11.8021 6.04083 11.7162 6.171 11.6825 6.31835L11.51 7.06669H10.2867L10.4 6.60585L10.415 6.52252C10.4324 6.36449 10.3888 6.20579 10.2932 6.07875C10.1977 5.9517 10.0573 5.86584 9.90064 5.83866C9.744 5.81147 9.58289 5.845 9.4501 5.93241C9.31731 6.01983 9.22282 6.15456 9.18587 6.30919M9.98087 8.31752H11.2225L10.9209 9.63919H9.65837L9.98087 8.31752ZM5.41671 1.66669C4.86417 1.66669 4.33427 1.88618 3.94357 2.27688C3.55287 2.66758 3.33337 3.19749 3.33337 3.75002V16.25C3.33337 16.8026 3.55287 17.3325 3.94357 17.7232C4.33427 18.1139 4.86417 18.3334 5.41671 18.3334H16.4584C16.6241 18.3334 16.7831 18.2675 16.9003 18.1503C17.0175 18.0331 17.0834 17.8741 17.0834 17.7084C17.0834 17.5426 17.0175 17.3836 16.9003 17.2664C16.7831 17.1492 16.6241 17.0834 16.4584 17.0834H5.41671C5.19569 17.0834 4.98373 16.9956 4.82745 16.8393C4.67117 16.683 4.58337 16.471 4.58337 16.25H16.4584C16.6241 16.25 16.7831 16.1842 16.9003 16.067C17.0175 15.9498 17.0834 15.7908 17.0834 15.625V3.75002C17.0834 3.47643 17.0295 3.20552 16.9248 2.95276C16.8201 2.7 16.6666 2.47034 16.4732 2.27688C16.2797 2.08343 16.0501 1.92997 15.7973 1.82527C15.5445 1.72057 15.2736 1.66669 15 1.66669H5.41671ZM15.8334 15H4.58337V3.75002C4.58337 3.52901 4.67117 3.31704 4.82745 3.16076C4.98373 3.00448 5.19569 2.91669 5.41671 2.91669H15C15.2211 2.91669 15.433 3.00448 15.5893 3.16076C15.7456 3.31704 15.8334 3.52901 15.8334 3.75002V15Z" fill="#4E4E4E"/>
</svg>
