<svg width="20" height="20" viewBox="0 0 20 20" fill="none" xmlns="http://www.w3.org/2000/svg">
<path fill-rule="evenodd" clip-rule="evenodd" d="M6.04163 8.33333C6.04163 7.28352 6.45866 6.2767 7.201 5.53437C7.94333 4.79204 8.95014 4.375 9.99996 4.375C11.0498 4.375 12.0566 4.79204 12.7989 5.53437C13.5413 6.2767 13.9583 7.28352 13.9583 8.33333C13.9583 9.38315 13.5413 10.39 12.7989 11.1323C12.0566 11.8746 11.0498 12.2917 9.99996 12.2917C8.95014 12.2917 7.94333 11.8746 7.201 11.1323C6.45866 10.39 6.04163 9.38315 6.04163 8.33333ZM9.99996 5.625C9.28166 5.625 8.59279 5.91034 8.08488 6.41825C7.57697 6.92616 7.29163 7.61504 7.29163 8.33333C7.29163 9.05163 7.57697 9.7405 8.08488 10.2484C8.59279 10.7563 9.28166 11.0417 9.99996 11.0417C10.7183 11.0417 11.4071 10.7563 11.915 10.2484C12.423 9.7405 12.7083 9.05163 12.7083 8.33333C12.7083 7.61504 12.423 6.92616 11.915 6.41825C11.4071 5.91034 10.7183 5.625 9.99996 5.625Z" fill="#4E4E4E"/>
<path fill-rule="evenodd" clip-rule="evenodd" d="M2.93665 7.38085C3.07946 5.65333 3.86649 4.04263 5.14156 2.86836C6.41664 1.69408 8.08657 1.04207 9.81998 1.04169H10.18C11.9134 1.04207 13.5833 1.69408 14.8584 2.86836C16.1335 4.04263 16.9205 5.65333 17.0633 7.38085C17.2222 9.30529 16.6276 11.2162 15.405 12.7109L11.4108 17.595C11.2399 17.804 11.0246 17.9725 10.7806 18.0881C10.5366 18.2038 10.27 18.2638 9.99998 18.2638C9.72996 18.2638 9.46331 18.2038 9.21932 18.0881C8.97533 17.9725 8.76008 17.804 8.58915 17.595L4.59498 12.7109C3.37234 11.2162 2.77779 9.30529 2.93665 7.38085ZM9.81998 2.29169C8.4005 2.29229 7.03308 2.82639 5.98899 3.78806C4.94489 4.74973 4.30039 6.0687 4.18331 7.48335C4.05105 9.08493 4.54582 10.6753 5.56331 11.9192L9.55748 16.8042C9.61117 16.8699 9.67881 16.9229 9.75548 16.9592C9.83215 16.9956 9.91595 17.0145 10.0008 17.0145C10.0857 17.0145 10.1695 16.9956 10.2462 16.9592C10.3228 16.9229 10.3905 16.8699 10.4441 16.8042L14.4383 11.9192C15.4552 10.6751 15.9494 9.08471 15.8166 7.48335C15.6996 6.06856 15.0549 4.74947 14.0107 3.78778C12.9664 2.82609 11.5988 2.29208 10.1791 2.29169H9.81998Z" fill="#4E4E4E"/>
</svg>
